PathFileType	4	(X/Y/Z)	Walk10.trc
DataRate	CameraRate	NumFrames	NumMarkers	Units	OrigDataRate	OrigDataStartFrame	OrigNumFrames
200.000000	200.000000	6	61	mm	200.000000	286	495
Frame#	Times		LFHD		RFHD		CLAV		LASI		RASI		RACR1		RUA1		RFA1		RWRR		RCAR		LACR1		LUA1		LWRU		RTH3		LTH1		LTH3		LTH2		LTH4		LTB1		LTB2		LTB4		LLFC		RTB1		LCAR		LTB3		LFA1		STRN		RTB4		RWRU		RTB3		RTH2		LBHD		RMT5		RMFC		RLFC		RToe		RMT1		RTH4		RMMAL		RTB2		RTH1		LElbow		RElbow		LWRR		LMFC		T10		LPSI		RLMAL		RBHD		RBack		RCAL		RPSI		LToe		RElbowM		C7		LMMAL		LElbowM		LLMAL		LCAL		LMT5		LMT1
			X1	Y1	Z1	X2	Y2	Z2	X3	Y3	Z3	X4	Y4	Z4	X5	Y5	Z5	X6	Y6	Z6	X7	Y7	Z7	X8	Y8	Z8	X9	Y9	Z9	X10	Y10	Z10	X11	Y11	Z11	X12	Y12	Z12	X13	Y13	Z13	X14	Y14	Z14	X15	Y15	Z15	X16	Y16	Z16	X17	Y17	Z17	X18	Y18	Z18	X19	Y19	Z19	X20	Y20	Z20	X21	Y21	Z21	X22	Y22	Z22	X23	Y23	Z23	X24	Y24	Z24	X25	Y25	Z25	X26	Y26	Z26	X27	Y27	Z27	X28	Y28	Z28	X29	Y29	Z29	X30	Y30	Z30	X31	Y31	Z31	X32	Y32	Z32	X33	Y33	Z33	X34	Y34	Z34	X35	Y35	Z35	X36	Y36	Z36	X37	Y37	Z37	X38	Y38	Z38	X39	Y39	Z39	X40	Y40	Z40	X41	Y41	Z41	X42	Y42	Z42	X43	Y43	Z43	X44	Y44	Z44	X45	Y45	Z45	X46	Y46	Z46	X47	Y47	Z47	X48	Y48	Z48	X49	Y49	Z49	X50	Y50	Z50	X51	Y51	Z51	X52	Y52	Z52	X53	Y53	Z53	X54	Y54	Z54	X55	Y55	Z55	X56	Y56	Z56	X57	Y57	Z57	X58	Y58	Z58	X59	Y59	Z59	X60	Y60	Z60	X61	Y61	Z61

286	1.43	21.527	1593.3	-6.3639	16.116	1594.8	93.121	-18.89	1313.9	42.61	-43.406	910.86	-75.142	-40.171	919.32	173.82	-98.981	1345	207.1	-121.16	1175.6	257.13	-125.95	887.58	323.1	-80.522	765.7	305.61	-108.01	707.97	358.67	-80.432	1365.2	-111.68	-72.793	1194.2	-180.65	161.11	897.2	-201.02	24.114	605.66	216.75	-118.05	744.42	-138.11	-159	581.13	-103.15	-85.512	655.06	-98.056	-139.81	662.26	-121.82	-185.5	340.33	-10.235	-226.05	257.01	-62.179	-214.64	259.3	-2.0904	-199.41	442.95	-80.281	121.53	372.09	167.97	190.71	832.62	-232.45	-237.1	178.31	6.8021	48.892	943.26	-227.64	0.75935	1179.2	50.866	119.44	285.69	164.68	-144.14	767.57	330.09	116.62	200.56	158.46	34.039	710.44	221.51	-117.71	1524	-34.93	174.48	53.51	186.21	70.064	465.82	71.7	89.802	477.38	194.69	252.02	82.13	142.85	205.88	72.948	108.43	-14.117	679.04	235.54	81.145	107.04	97.283	75.288	285.65	207.12	-53.164	754.07	256.08	-59.651	1039.1	-214.89	-147	1012.4	285.73	113.98	846.77	-207.29	-230.23	444.25	50.088	-203.58	1207.4	37.093	-216.52	965.98	2.5806	67.968	87.554	178.55	-122.99	1532.1	108.03	-208.32	1292.4	103.65	20.685	54.395	132.84	-212.71	958.31	102.31	-124.28	25.725	7.9538	-159.82	1005.1	209.44	-125.94	1418.1	37.748	-299.05	97.924	47.543	-75.447	1012	-146.59	-313.01	78.039	-32.378	-372.63	58.076	8.993	-213.27	25.58	-41.739	-180.89	28.805	39.09
287	1.435	28.536	1592.6	-6.0171	23.102	1594.1	93.469	-11.511	1313	42.973	-36.678	909.94	-75.182	-32.144	918.36	173.92	-91.39	1344.1	207.57	-114.38	1174.8	257.64	-120.53	886.91	323.98	-75.653	764.78	306.83	-103.6	707.29	359.86	-73.048	1364.3	-111.2	-64.571	1193.5	-180.18	172.39	900.35	-198.72	30.479	604.13	217.48	-112.92	744.07	-138	-155.01	581.1	-103.03	-80.957	654.43	-98.226	-135.23	662.08	-121.76	-183.1	340.28	-10.18	-224.45	257.33	-62.071	-212.85	259.47	-2.0329	-196.46	443.15	-80.102	131.96	372.67	168.53	203.75	836.47	-229.85	-235.88	178.62	6.817	59.668	944.45	-226.47	8.0611	1178.1	51.138	133.01	286.19	165.35	-139.31	766.99	331.06	133.29	200.95	159.28	40.877	708.82	221.98	-110.52	1522.9	-34.595	196.67	55.67	186.79	75.695	463.73	72.482	96.935	476.45	195.25	272.95	86.937	142.89	226.95	76.275	108.83	-7.399	677.7	236.14	100.92	106.16	98.376	89.143	284.55	208.13	-46.011	752.95	256.64	-50.5	1038.5	-214.71	-140.88	1011.8	286.33	126.28	849.05	-205.7	-226.74	444.56	50.383	-196.42	1206.7	37.64	-209.45	965.06	3.6885	88.895	86.125	179.78	-115.86	1531	108.35	-200.89	1291.6	104.19	42.462	51.322	134.25	-205.14	957.34	103.34	-124.27	25.696	7.905	-153.48	1004.3	210.09	-118.51	1417.3	38.221	-298.43	98.73	47.745	-66.687	1011.1	-146.58	-312.7	78.96	-32.16	-372.39	59.407	9.3199	-213.36	25.627	-41.602	-180.78	28.78	39.078
288	1.44	35.548	1591.8	-5.6598	30.104	1593.3	93.828	-4.121	1312.1	43.346	-29.914	909.01	-75.22	-24.061	917.38	174.01	-83.752	1343.1	208.06	-107.46	1174	258.18	-115	886.21	324.86	-70.691	763.83	308.03	-99.081	706.57	361.05	-65.686	1363.4	-110.69	-56.354	1192.7	-179.67	183.42	903.36	-196.41	36.763	602.47	218.36	-107.7	743.72	-137.88	-150.89	581.05	-102.9	-76.298	653.79	-98.403	-130.56	661.88	-121.68	-180.56	340.2	-10.111	-222.74	257.64	-61.959	-210.96	259.62	-1.9696	-193.33	443.32	-79.907	142.13	373.21	169.14	216.46	840.22	-227.26	-234.6	178.93	6.8275	70.279	945.57	-225.27	15.383	1177	51.407	146.22	286.74	166.06	-134.38	766.38	332.04	149.5	201.49	160.14	47.672	707.07	222.41	-103.33	1521.7	-34.235	218.19	58.05	187.39	81.235	461.43	73.252	103.95	475.4	195.82	293.2	91.845	142.97	247.37	79.762	109.26	-0.71663	676.27	236.81	120.2	105.57	99.436	102.63	283.57	209.12	-38.85	751.79	257.17	-41.403	1038	-214.48	-134.65	1011.1	286.96	138.32	851.25	-204.07	-223.07	444.85	50.691	-189.25	1205.9	38.227	-202.33	964.11	4.8305	109.26	85.033	180.96	-108.71	1529.9	108.69	-193.44	1290.7	104.78	63.723	48.645	135.58	-197.52	956.35	104.4	-124.25	25.661	7.8695	-147.09	1003.6	210.77	-111.08	1416.4	38.727	-297.78	99.558	47.927	-57.979	1010.2	-146.51	-312.35	79.92	-31.97	-372.12	60.796	9.6124	-213.43	25.676	-41.473	-180.67	28.755	39.073
289	1.445	42.567	1591	-5.2897	37.122	1592.5	94.2	3.2784	1311.1	43.729	-23.107	908.08	-75.251	-15.926	916.4	174.11	-76.071	1342.1	208.58	-100.41	1173.1	258.75	-109.36	885.48	325.74	-65.633	762.86	309.19	-94.451	705.84	362.21	-58.35	1362.4	-110.15	-48.149	1191.9	-179.13	194.22	906.24	-194.09	42.996	600.71	219.4	-102.4	743.36	-137.74	-146.62	580.98	-102.76	-71.522	653.16	-98.58	-125.77	661.66	-121.59	-177.89	340.08	-10.03	-220.93	257.95	-61.844	-208.98	259.75	-1.9014	-190.03	443.48	-79.697	152.06	373.68	169.79	228.85	843.85	-224.67	-233.25	179.23	6.8335	80.719	946.64	-224.03	22.724	1175.9	51.673	159.05	287.32	166.8	-129.35	765.75	333.02	165.2	202.14	161.02	54.447	705.23	222.78	-96.14	1520.6	-33.849	238.94	60.59	187.99	86.716	458.97	74.006	110.87	474.26	196.4	312.7	96.779	143.11	267.07	83.344	109.73	5.9543	674.78	237.55	138.9	105.23	100.45	115.72	282.7	210.07	-31.663	750.62	257.66	-32.369	1037.4	-214.2	-128.31	1010.4	287.62	150.12	853.37	-202.41	-219.21	445.09	51.013	-182.05	1205.1	38.856	-195.16	963.11	6.0042	128.97	84.243	182.07	-101.54	1528.8	109.07	-185.97	1289.8	105.43	84.374	46.336	136.83	-189.84	955.32	105.49	-124.23	25.622	7.8472	-140.63	1002.8	211.47	-103.64	1415.6	39.268	-297.09	100.41	48.087	-49.326	1009.3	-146.38	-311.96	80.923	-31.808	-371.82	62.25	9.8685	-213.5	25.726	-41.353	-180.57	28.728	39.078
290	1.45	49.594	1590.2	-4.9043	44.159	1591.7	94.588	10.686	1310.1	44.125	-16.247	907.14	-75.272	-7.7417	915.41	174.21	-68.349	1341.1	209.13	-93.224	1172.2	259.34	-103.61	884.73	326.62	-60.478	761.86	310.32	-89.714	705.08	363.36	-51.044	1361.5	-109.59	-39.964	1191.2	-178.55	204.79	908.97	-191.78	49.207	598.87	220.6	-96.998	742.99	-137.57	-142.21	580.89	-102.61	-66.618	652.53	-98.749	-120.85	661.42	-121.49	-175.08	339.93	-9.9379	-219	258.26	-61.728	-206.88	259.87	-1.83	-186.54	443.61	-79.475	161.73	374.09	170.46	240.91	847.33	-222.09	-231.84	179.54	6.8345	90.984	947.63	-222.77	30.084	1174.8	51.938	171.47	287.89	167.55	-124.21	765.11	334	180.35	202.86	161.92	61.224	703.3	223.12	-88.943	1519.5	-33.435	258.83	63.221	188.62	92.174	456.37	74.736	117.71	473.05	196.98	331.39	101.66	143.33	285.99	86.948	110.24	12.639	673.25	238.37	156.97	105.11	101.41	128.38	281.92	210.97	-24.428	749.44	258.13	-23.406	1036.8	-213.88	-121.87	1009.7	288.31	161.66	855.4	-200.73	-215.16	445.31	51.347	-174.83	1204.2	39.529	-187.94	962.08	7.2068	147.95	83.712	183.1	-94.355	1527.6	109.48	-178.48	1288.9	106.13	104.32	44.367	137.97	-182.11	954.27	106.6	-124.2	25.58	7.8376	-134.1	1002.1	212.2	-96.207	1414.7	39.843	-296.36	101.29	48.222	-40.733	1008.4	-146.19	-311.53	81.972	-31.675	-371.49	63.772	10.086	-213.54	25.778	-41.241	-180.48	28.697	39.096
291	1.455	56.63	1589.4	-4.5015	51.213	1590.9	94.994	18.099	1309.1	44.536	-9.3273	906.21	-75.28	0.48814	914.44	174.31	-60.591	1340	209.71	-85.909	1171.3	259.97	-97.758	883.95	327.5	-55.226	760.84	311.43	-84.869	704.3	364.49	-43.769	1360.5	-108.99	-31.808	1190.4	-177.94	215.12	911.55	-189.48	55.427	596.97	221.95	-91.473	742.61	-137.38	-137.63	580.79	-102.44	-61.574	651.9	-98.903	-115.79	661.16	-121.36	-172.13	339.75	-9.836	-216.96	258.56	-61.614	-204.68	259.97	-1.7575	-182.87	443.73	-79.241	171.15	374.41	171.15	252.64	850.67	-219.54	-230.35	179.85	6.8297	101.07	948.56	-221.48	37.463	1173.8	52.204	183.46	288.44	168.32	-118.98	764.44	334.98	194.9	203.61	162.81	68.028	701.32	223.41	-81.743	1518.3	-32.992	277.8	65.872	189.27	97.643	453.68	75.437	124.52	471.76	197.55	349.24	106.39	143.63	304.08	90.495	110.8	19.365	671.7	239.26	174.33	105.17	102.3	140.58	281.21	211.82	-17.122	748.28	258.58	-14.524	1036.2	-213.52	-115.32	1008.9	289.02	172.95	857.32	-199.02	-210.91	445.5	51.691	-167.59	1203.4	40.247	-180.67	961.03	8.4352	166.1	83.389	184.02	-87.154	1526.5	109.91	-170.98	1288	106.88	123.47	42.699	138.99	-174.33	953.21	107.74	-124.17	25.534	7.8402	-127.5	1001.3	212.95	-88.774	1413.7	40.454	-295.59	102.21	48.333	-32.206	1007.5	-145.93	-311.05	83.073	-31.574	-371.13	65.371	10.263	-213.57	25.832	-41.138	-180.4	28.661	39.128
